<?xml version="1.0" encoding="UTF-8" standalone="no"?>
<svg
   inkscape:version="1.3.2 (091e20e, 2023-11-25, custom)"
   id="svg8"
   version="1.1"
   viewBox="0 0 1920 1080"
   height="1080"
   width="1920"
   sodipodi:docname="bg.svg"
   inkscape:export-filename="bg.png"
   inkscape:export-xdpi="96"
   inkscape:export-ydpi="96"
   xmlns:inkscape="http://www.inkscape.org/namespaces/inkscape"
   xmlns:sodipodi="http://sodipodi.sourceforge.net/DTD/sodipodi-0.dtd"
   xmlns:xlink="http://www.w3.org/1999/xlink"
   xmlns="http://www.w3.org/2000/svg"
   xmlns:svg="http://www.w3.org/2000/svg"
   xmlns:rdf="http://www.w3.org/1999/02/22-rdf-syntax-ns#"
   xmlns:cc="http://creativecommons.org/ns#"
   xmlns:dc="http://purl.org/dc/elements/1.1/">
  <defs
     id="defs2">
    <linearGradient
       id="linearGradient452"
       inkscape:collect="always">
      <stop
         style="stop-color:#6a9775;stop-opacity:1;"
         offset="0"
         id="stop452" />
      <stop
         style="stop-color:#94cc12;stop-opacity:1"
         offset="1"
         id="stop453" />
    </linearGradient>
    <linearGradient
       id="linearGradient450"
       inkscape:collect="always">
      <stop
         style="stop-color:#9fd7e6;stop-opacity:1;"
         offset="0"
         id="stop450" />
      <stop
         style="stop-color:#2b93f9;stop-opacity:1"
         offset="1"
         id="stop451" />
    </linearGradient>
    <mask
       maskUnits="userSpaceOnUse"
       id="mask4662">
      <rect
         style="fill:url(#linearGradient4666);fill-opacity:1;stroke:none;stroke-width:3;stroke-linecap:round;paint-order:markers stroke fill"
         id="rect4664"
         width="88.50853"
         height="60.308647"
         x="-133.74002"
         y="-153.00528" />
    </mask>
    <linearGradient
       inkscape:collect="always"
       xlink:href="#linearGradient4164"
       id="linearGradient4666"
       gradientUnits="userSpaceOnUse"
       x1="-99.956009"
       y1="-122.85096"
       x2="-98.559975"
       y2="-122.85096" />
    <linearGradient
       inkscape:collect="always"
       id="linearGradient4164">
      <stop
         style="stop-color:#ffffff;stop-opacity:0.5"
         offset="0"
         id="stop4160" />
      <stop
         style="stop-color:#ffffff;stop-opacity:1"
         offset="1"
         id="stop4162" />
    </linearGradient>
    <mask
       maskUnits="userSpaceOnUse"
       id="mask4662-4">
      <rect
         style="fill:url(#linearGradient4666);fill-opacity:1;stroke:none;stroke-width:3;stroke-linecap:round;paint-order:markers stroke fill"
         id="rect4664-9"
         width="88.50853"
         height="60.308647"
         x="-133.74002"
         y="-153.00528" />
    </mask>
    <linearGradient
       inkscape:collect="always"
       xlink:href="#linearGradient450"
       id="linearGradient451"
       x1="949.40192"
       y1="1167.1125"
       x2="945.55682"
       y2="-326.11343"
       gradientUnits="userSpaceOnUse" />
    <linearGradient
       inkscape:collect="always"
       xlink:href="#linearGradient452"
       id="linearGradient453"
       x1="986.98981"
       y1="1170.4346"
       x2="958.95874"
       y2="-802.42584"
       gradientUnits="userSpaceOnUse" />
  </defs>
  <sodipodi:namedview
     guidetolerance="19.9"
     objecttolerance="11"
     inkscape:showpageshadow="false"
     borderlayer="true"
     inkscape:pagecheckerboard="false"
     units="px"
     showgrid="true"
     inkscape:document-rotation="0"
     inkscape:current-layer="g450"
     inkscape:document-units="px"
     inkscape:cy="490.28698"
     inkscape:cx="923.61579"
     inkscape:zoom="0.44769698"
     inkscape:pageshadow="2"
     inkscape:pageopacity="0"
     borderopacity="1"
     bordercolor="#931476"
     pagecolor="#808080"
     id="base"
     gridtolerance="11.4"
     inkscape:window-width="1920"
     inkscape:window-height="1013"
     inkscape:window-x="2391"
     inkscape:window-y="-9"
     inkscape:window-maximized="1"
     inkscape:blackoutopacity="0.0"
     inkscape:deskcolor="#636363"
     inkscape:snap-global="false"
     showguides="false" />
  <metadata
     id="metadata5">
    <rdf:RDF>
      <cc:Work
         rdf:about="">
        <dc:format>image/svg+xml</dc:format>
        <dc:type
           rdf:resource="http://purl.org/dc/dcmitype/StillImage" />
        <cc:license
           rdf:resource="http://creativecommons.org/licenses/by-sa/4.0/" />
      </cc:Work>
      <cc:License
         rdf:about="http://creativecommons.org/licenses/by-sa/4.0/">
        <cc:permits
           rdf:resource="http://creativecommons.org/ns#Reproduction" />
        <cc:permits
           rdf:resource="http://creativecommons.org/ns#Distribution" />
        <cc:requires
           rdf:resource="http://creativecommons.org/ns#Notice" />
        <cc:requires
           rdf:resource="http://creativecommons.org/ns#Attribution" />
        <cc:permits
           rdf:resource="http://creativecommons.org/ns#DerivativeWorks" />
        <cc:requires
           rdf:resource="http://creativecommons.org/ns#ShareAlike" />
      </cc:License>
    </rdf:RDF>
  </metadata>
  <g
     id="layer1"
     inkscape:groupmode="layer"
     inkscape:label="workspace">
    <rect
       style="fill:#b3b6b2;stroke-width:10;stroke-miterlimit:5;paint-order:markers stroke fill"
       id="rect1"
       width="1976.7834"
       height="1114.5931"
       x="-22.336536"
       y="-11.168268"
       sodipodi:insensitive="true" />
    <g
       id="g450"
       transform="translate(-12)"
       style="opacity:0.5">
      <path
         id="rect2"
         style="fill:url(#linearGradient453);stroke-width:10;stroke-miterlimit:5;paint-order:markers stroke fill"
         d="M 0,0 V 72 H 72 V 0 Z m 72,72 v 72 h 72 V 72 Z m 72,0 h 72 V 0 h -72 z m 72,0 v 72 h 72 V 72 Z m 72,0 h 72 V 0 h -72 z m 72,0 v 72 h 72 V 72 Z m 72,0 h 72 V 0 h -72 z m 72,0 v 72 h 72 V 72 Z m 72,0 h 72 V 0 h -72 z m 72,0 v 72 h 72 V 72 Z m 72,0 h 72 V 0 h -72 z m 72,0 v 72 h 72 V 72 Z m 72,0 h 72 V 0 h -72 z m 72,0 v 72 h 72 V 72 Z m 72,0 h 72 V 0 h -72 z m 72,0 v 72 h 72 V 72 Z m 72,0 h 72 V 0 h -72 z m 72,0 v 72 h 72 V 72 Z m 72,0 h 72 V 0 h -72 z m 72,0 v 72 h 72 V 72 Z m 72,0 h 72 V 0 h -72 z m 72,0 v 72 h 72 V 72 Z m 72,0 h 72 V 0 h -72 z m 72,0 v 72 h 72 V 72 Z m 72,0 h 72 V 0 h -72 z m 72,0 v 72 h 72 V 72 Z m 72,0 h 72 V 0 h -72 z m 0,72 v 72 h 72 v -72 z m 0,72 h -72 v 72 h 72 z m 0,72 v 72 h 72 v -72 z m 0,72 h -72 v 72 h 72 z m 0,72 v 72 h 72 v -72 z m 0,72 h -72 v 72 h 72 z m 0,72 v 72 h 72 v -72 z m 0,72 h -72 v 72 h 72 z m 0,72 v 72 h 72 v -72 z m 0,72 h -72 v 72 h 72 z m 0,72 v 72 h 72 v -72 z m 0,72 h -72 v 72 h 72 z m 0,72 v 72 h 72 v -72 z m -72,0 h -72 v 72 h 72 z m -72,0 v -72 h -72 v 72 z m -72,0 h -72 v 72 h 72 z m -72,0 v -72 h -72 v 72 z m -72,0 h -72 v 72 h 72 z m -72,0 v -72 h -72 v 72 z m -72,0 h -72 v 72 h 72 z m -72,0 v -72 h -72 v 72 z m -72,0 h -72 v 72 h 72 z m -72,0 v -72 h -72 v 72 z m -72,0 h -72 v 72 h 72 z m -72,0 v -72 h -72 v 72 z m -72,0 h -72 v 72 h 72 z m -72,0 v -72 h -72 v 72 z m -72,0 h -72 v 72 h 72 z m -72,0 v -72 h -72 v 72 z m -72,0 h -72 v 72 h 72 z m -72,0 v -72 h -72 v 72 z m -72,0 h -72 v 72 h 72 z m -72,0 v -72 h -72 v 72 z m -72,0 h -72 v 72 h 72 z m -72,0 v -72 h -72 v 72 z m -72,0 h -72 v 72 h 72 z m -72,0 V 936 H 72 v 72 z m -72,0 H 0 v 72 h 72 z m 0,-72 V 864 H 0 v 72 z m 0,-72 h 72 V 792 H 72 Z m 0,-72 V 720 H 0 v 72 z m 0,-72 h 72 V 648 H 72 Z m 0,-72 V 576 H 0 v 72 z m 0,-72 h 72 V 504 H 72 Z m 0,-72 V 432 H 0 v 72 z m 0,-72 h 72 V 360 H 72 Z m 0,-72 V 288 H 0 v 72 z m 0,-72 h 72 V 216 H 72 Z m 0,-72 V 144 H 0 v 72 z m 72,0 h 72 v -72 h -72 z m 72,0 v 72 h 72 v -72 z m 72,0 h 72 v -72 h -72 z m 72,0 v 72 h 72 v -72 z m 72,0 h 72 v -72 h -72 z m 72,0 v 72 h 72 v -72 z m 72,0 h 72 v -72 h -72 z m 72,0 v 72 h 72 v -72 z m 72,0 h 72 v -72 h -72 z m 72,0 v 72 h 72 v -72 z m 72,0 h 72 v -72 h -72 z m 72,0 v 72 h 72 v -72 z m 72,0 h 72 v -72 h -72 z m 72,0 v 72 h 72 v -72 z m 72,0 h 72 v -72 h -72 z m 72,0 v 72 h 72 v -72 z m 72,0 h 72 v -72 h -72 z m 72,0 v 72 h 72 v -72 z m 72,0 h 72 v -72 h -72 z m 72,0 v 72 h 72 v -72 z m 72,0 h 72 v -72 h -72 z m 72,0 v 72 h 72 v -72 z m 72,0 h 72 v -72 h -72 z m 0,72 v 72 h 72 v -72 z m 0,72 h -72 v 72 h 72 z m 0,72 v 72 h 72 v -72 z m 0,72 h -72 v 72 h 72 z m 0,72 v 72 h 72 v -72 z m 0,72 h -72 v 72 h 72 z m 0,72 v 72 h 72 v -72 z m 0,72 h -72 v 72 h 72 z m 0,72 v 72 h 72 v -72 z m -72,0 h -72 v 72 h 72 z m -72,0 v -72 h -72 v 72 z m -72,0 h -72 v 72 h 72 z m -72,0 v -72 h -72 v 72 z m -72,0 h -72 v 72 h 72 z m -72,0 v -72 h -72 v 72 z m -72,0 h -72 v 72 h 72 z m -72,0 v -72 h -72 v 72 z m -72,0 h -72 v 72 h 72 z m -72,0 v -72 h -72 v 72 z m -72,0 h -72 v 72 h 72 z m -72,0 v -72 h -72 v 72 z m -72,0 h -72 v 72 h 72 z m -72,0 v -72 h -72 v 72 z m -72,0 h -72 v 72 h 72 z m -72,0 v -72 h -72 v 72 z m -72,0 h -72 v 72 h 72 z m -72,0 v -72 h -72 v 72 z m -72,0 h -72 v 72 h 72 z m -72,0 v -72 h -72 v 72 z m -72,0 h -72 v 72 h 72 z m 0,-72 v -72 h -72 v 72 z m 0,-72 h 72 v -72 h -72 z m 0,-72 v -72 h -72 v 72 z m 0,-72 h 72 v -72 h -72 z m 0,-72 v -72 h -72 v 72 z m 0,-72 h 72 v -72 h -72 z m 0,-72 v -72 h -72 v 72 z m 72,0 h 72 v -72 h -72 z m 72,0 v 72 h 72 v -72 z m 72,0 h 72 v -72 h -72 z m 72,0 v 72 h 72 v -72 z m 72,0 h 72 v -72 h -72 z m 72,0 v 72 h 72 v -72 z m 72,0 h 72 v -72 h -72 z m 72,0 v 72 h 72 v -72 z m 72,0 h 72 v -72 h -72 z m 72,0 v 72 h 72 v -72 z m 72,0 h 72 v -72 h -72 z m 72,0 v 72 h 72 v -72 z m 72,0 h 72 v -72 h -72 z m 72,0 v 72 h 72 v -72 z m 72,0 h 72 v -72 h -72 z m 72,0 v 72 h 72 v -72 z m 72,0 h 72 v -72 h -72 z m 72,0 v 72 h 72 v -72 z m 72,0 h 72 v -72 h -72 z m 0,72 v 72 h 72 v -72 z m 0,72 h -72 v 72 h 72 z m 0,72 v 72 h 72 v -72 z m 0,72 h -72 v 72 h 72 z m 0,72 v 72 h 72 v -72 z m -72,0 h -72 v 72 h 72 z m -72,0 v -72 h -72 v 72 z m -72,0 h -72 v 72 h 72 z m -72,0 v -72 h -72 v 72 z m -72,0 h -72 v 72 h 72 z m -72,0 v -72 h -72 v 72 z m -72,0 h -72 v 72 h 72 z m -72,0 v -72 h -72 v 72 z m -72,0 h -72 v 72 h 72 z m -72,0 v -72 h -72 v 72 z m -72,0 h -72 v 72 h 72 z m -72,0 v -72 h -72 v 72 z m -72,0 h -72 v 72 h 72 z m -72,0 v -72 h -72 v 72 z m -72,0 h -72 v 72 h 72 z m -72,0 v -72 h -72 v 72 z m -72,0 h -72 v 72 h 72 z m 0,-72 v -72 h -72 v 72 z m 0,-72 h 72 v -72 h -72 z m 0,-72 v -72 h -72 v 72 z m 72,0 h 72 v -72 h -72 z m 72,0 v 72 h 72 v -72 z m 72,0 h 72 v -72 h -72 z m 72,0 v 72 h 72 v -72 z m 72,0 h 72 v -72 h -72 z m 72,0 v 72 h 72 v -72 z m 72,0 h 72 v -72 h -72 z m 72,0 v 72 h 72 v -72 z m 72,0 h 72 v -72 h -72 z m 72,0 v 72 h 72 v -72 z m 72,0 h 72 v -72 h -72 z m 72,0 v 72 h 72 v -72 z m 72,0 h 72 v -72 h -72 z m 72,0 v 72 h 72 v -72 z m 72,0 h 72 v -72 h -72 z m 0,72 v 72 h 72 v -72 z m -72,0 h -72 v 72 h 72 z m -144,0 h -72 v 72 h 72 z m -144,0 h -72 v 72 h 72 z m -144,0 h -72 v 72 h 72 z m -144,0 h -72 v 72 h 72 z m -144,0 h -72 v 72 h 72 z m -144,0 h -72 v 72 h 72 z" />
      <path
         id="rect3"
         style="fill:url(#linearGradient451);stroke-width:10;stroke-miterlimit:5;paint-order:markers stroke fill"
         d="m 72,0 v 72 h 72 V 0 Z m 72,72 v 72 h 72 V 72 Z m 72,0 h 72 V 0 h -72 z m 72,0 v 72 h 72 V 72 Z m 72,0 h 72 V 0 h -72 z m 72,0 v 72 h 72 V 72 Z m 72,0 h 72 V 0 h -72 z m 72,0 v 72 h 72 V 72 Z m 72,0 h 72 V 0 h -72 z m 72,0 v 72 h 72 V 72 Z m 72,0 h 72 V 0 h -72 z m 72,0 v 72 h 72 V 72 Z m 72,0 h 72 V 0 h -72 z m 72,0 v 72 h 72 V 72 Z m 72,0 h 72 V 0 h -72 z m 72,0 v 72 h 72 V 72 Z m 72,0 h 72 V 0 h -72 z m 72,0 v 72 h 72 V 72 Z m 72,0 h 72 V 0 h -72 z m 72,0 v 72 h 72 V 72 Z m 72,0 h 72 V 0 h -72 z m 72,0 v 72 h 72 V 72 Z m 72,0 h 72 V 0 h -72 z m 72,0 v 72 h 72 V 72 Z m 72,0 h 72 V 0 h -72 z m 72,0 v 72 h 72 V 72 Z m 0,72 h -72 v 72 h 72 z m 0,72 v 72 h 72 v -72 z m 0,72 h -72 v 72 h 72 z m 0,72 v 72 h 72 v -72 z m 0,72 h -72 v 72 h 72 z m 0,72 v 72 h 72 v -72 z m 0,72 h -72 v 72 h 72 z m 0,72 v 72 h 72 v -72 z m 0,72 h -72 v 72 h 72 z m 0,72 v 72 h 72 v -72 z m 0,72 h -72 v 72 h 72 z m 0,72 v 72 h 72 v -72 z m 0,72 h -72 v 72 h 72 z m -72,0 v -72 h -72 v 72 z m -72,0 h -72 v 72 h 72 z m -72,0 v -72 h -72 v 72 z m -72,0 h -72 v 72 h 72 z m -72,0 v -72 h -72 v 72 z m -72,0 h -72 v 72 h 72 z m -72,0 v -72 h -72 v 72 z m -72,0 h -72 v 72 h 72 z m -72,0 v -72 h -72 v 72 z m -72,0 h -72 v 72 h 72 z m -72,0 v -72 h -72 v 72 z m -72,0 h -72 v 72 h 72 z m -72,0 v -72 h -72 v 72 z m -72,0 h -72 v 72 h 72 z m -72,0 v -72 h -72 v 72 z m -72,0 h -72 v 72 h 72 z m -72,0 v -72 h -72 v 72 z m -72,0 h -72 v 72 h 72 z m -72,0 v -72 h -72 v 72 z m -72,0 h -72 v 72 h 72 z m -72,0 v -72 h -72 v 72 z m -72,0 h -72 v 72 h 72 z m -72,0 v -72 h -72 v 72 z m -72,0 H 72 v 72 h 72 z m -72,0 V 936 H 0 v 72 z m 0,-72 h 72 V 864 H 72 Z m 0,-72 V 792 H 0 v 72 z m 0,-72 h 72 V 720 H 72 Z m 0,-72 V 648 H 0 v 72 z m 0,-72 h 72 V 576 H 72 Z m 0,-72 V 504 H 0 v 72 z m 0,-72 h 72 V 432 H 72 Z m 0,-72 V 360 H 0 v 72 z m 0,-72 h 72 V 288 H 72 Z m 0,-72 V 216 H 0 v 72 z m 0,-72 h 72 V 144 H 72 Z m 0,-72 V 72 H 0 v 72 z m 72,72 v 72 h 72 v -72 z m 72,0 h 72 v -72 h -72 z m 72,0 v 72 h 72 v -72 z m 72,0 h 72 v -72 h -72 z m 72,0 v 72 h 72 v -72 z m 72,0 h 72 v -72 h -72 z m 72,0 v 72 h 72 v -72 z m 72,0 h 72 v -72 h -72 z m 72,0 v 72 h 72 v -72 z m 72,0 h 72 v -72 h -72 z m 72,0 v 72 h 72 v -72 z m 72,0 h 72 v -72 h -72 z m 72,0 v 72 h 72 v -72 z m 72,0 h 72 v -72 h -72 z m 72,0 v 72 h 72 v -72 z m 72,0 h 72 v -72 h -72 z m 72,0 v 72 h 72 v -72 z m 72,0 h 72 v -72 h -72 z m 72,0 v 72 h 72 v -72 z m 72,0 h 72 v -72 h -72 z m 72,0 v 72 h 72 v -72 z m 72,0 h 72 v -72 h -72 z m 72,0 v 72 h 72 v -72 z m 0,72 h -72 v 72 h 72 z m 0,72 v 72 h 72 v -72 z m 0,72 h -72 v 72 h 72 z m 0,72 v 72 h 72 v -72 z m 0,72 h -72 v 72 h 72 z m 0,72 v 72 h 72 v -72 z m 0,72 h -72 v 72 h 72 z m 0,72 v 72 h 72 v -72 z m 0,72 h -72 v 72 h 72 z m -72,0 v -72 h -72 v 72 z m -72,0 h -72 v 72 h 72 z m -72,0 v -72 h -72 v 72 z m -72,0 h -72 v 72 h 72 z m -72,0 v -72 h -72 v 72 z m -72,0 h -72 v 72 h 72 z m -72,0 v -72 h -72 v 72 z m -72,0 h -72 v 72 h 72 z m -72,0 v -72 h -72 v 72 z m -72,0 h -72 v 72 h 72 z m -72,0 v -72 h -72 v 72 z m -72,0 h -72 v 72 h 72 z m -72,0 v -72 h -72 v 72 z m -72,0 h -72 v 72 h 72 z m -72,0 v -72 h -72 v 72 z m -72,0 h -72 v 72 h 72 z m -72,0 v -72 h -72 v 72 z m -72,0 h -72 v 72 h 72 z m -72,0 v -72 h -72 v 72 z m -72,0 h -72 v 72 h 72 z m -72,0 v -72 h -72 v 72 z m 0,-72 h 72 v -72 h -72 z m 0,-72 v -72 h -72 v 72 z m 0,-72 h 72 v -72 h -72 z m 0,-72 v -72 h -72 v 72 z m 0,-72 h 72 v -72 h -72 z m 0,-72 v -72 h -72 v 72 z m 0,-72 h 72 v -72 h -72 z m 72,0 v 72 h 72 v -72 z m 72,0 h 72 v -72 h -72 z m 72,0 v 72 h 72 v -72 z m 72,0 h 72 v -72 h -72 z m 72,0 v 72 h 72 v -72 z m 72,0 h 72 v -72 h -72 z m 72,0 v 72 h 72 v -72 z m 72,0 h 72 v -72 h -72 z m 72,0 v 72 h 72 v -72 z m 72,0 h 72 v -72 h -72 z m 72,0 v 72 h 72 v -72 z m 72,0 h 72 v -72 h -72 z m 72,0 v 72 h 72 v -72 z m 72,0 h 72 v -72 h -72 z m 72,0 v 72 h 72 v -72 z m 72,0 h 72 v -72 h -72 z m 72,0 v 72 h 72 v -72 z m 72,0 h 72 v -72 h -72 z m 72,0 v 72 h 72 v -72 z m 0,72 h -72 v 72 h 72 z m 0,72 v 72 h 72 v -72 z m 0,72 h -72 v 72 h 72 z m 0,72 v 72 h 72 v -72 z m 0,72 h -72 v 72 h 72 z m -72,0 v -72 h -72 v 72 z m -72,0 h -72 v 72 h 72 z m -72,0 v -72 h -72 v 72 z m -72,0 h -72 v 72 h 72 z m -72,0 v -72 h -72 v 72 z m -72,0 h -72 v 72 h 72 z m -72,0 v -72 h -72 v 72 z m -72,0 h -72 v 72 h 72 z m -72,0 v -72 h -72 v 72 z m -72,0 h -72 v 72 h 72 z m -72,0 v -72 h -72 v 72 z m -72,0 h -72 v 72 h 72 z m -72,0 v -72 h -72 v 72 z m -72,0 h -72 v 72 h 72 z m -72,0 v -72 h -72 v 72 z m -72,0 h -72 v 72 h 72 z m -72,0 v -72 h -72 v 72 z m 0,-72 h 72 v -72 h -72 z m 0,-72 v -72 h -72 v 72 z m 0,-72 h 72 v -72 h -72 z m 72,0 v 72 h 72 v -72 z m 72,0 h 72 v -72 h -72 z m 72,0 v 72 h 72 v -72 z m 72,0 h 72 v -72 h -72 z m 72,0 v 72 h 72 v -72 z m 72,0 h 72 v -72 h -72 z m 72,0 v 72 h 72 v -72 z m 72,0 h 72 v -72 h -72 z m 72,0 v 72 h 72 v -72 z m 72,0 h 72 v -72 h -72 z m 72,0 v 72 h 72 v -72 z m 72,0 h 72 v -72 h -72 z m 72,0 v 72 h 72 v -72 z m 72,0 h 72 v -72 h -72 z m 72,0 v 72 h 72 v -72 z m 0,72 h -72 v 72 h 72 z m -144,0 h -72 v 72 h 72 z m -144,0 h -72 v 72 h 72 z m -144,0 h -72 v 72 h 72 z m -144,0 h -72 v 72 h 72 z m -144,0 h -72 v 72 h 72 z m -144,0 h -72 v 72 h 72 z" />
    </g>
  </g>
  <g
     inkscape:groupmode="layer"
     id="layer4"
     inkscape:label="tools"
     sodipodi:insensitive="true"
     style="display:none">
    <rect
       style="fill:#3b3c3a;fill-opacity:1;stroke-width:6.20734;stroke-linecap:round;paint-order:markers stroke fill"
       id="rect25306"
       width="259.6073"
       height="164.72081"
       x="9.6449594"
       y="-181.53185" />
    <rect
       style="fill:#7bb79d;fill-opacity:1;stroke:none;stroke-width:5.60344;stroke-linecap:round;paint-order:markers stroke fill"
       id="rect4056"
       width="153.4043"
       height="112.10314"
       x="18.698523"
       y="-139.97699" />
    <rect
       style="fill:#c29861;fill-opacity:1;stroke:none;stroke-width:3;stroke-linecap:round;paint-order:markers stroke fill"
       id="rect4058"
       width="88.50853"
       height="60.308647"
       x="-133.74002"
       y="-153.00528"
       mask="url(#mask4662-4)"
       transform="matrix(1.8678128,0,0,1.8678128,344.68264,145.53717)" />
  </g>
</svg>
